<svg width="226" height="170" viewBox="0 0 226 170" fill="none" xmlns="http://www.w3.org/2000/svg">
<g filter="url(#filter0_di_24_243)">
<path d="M57 61C57 57.6863 59.6863 55 63 55H163C166.314 55 169 57.6863 169 61V105C169 108.314 166.314 111 163 111H63C59.6863 111 57 108.314 57 105V61Z" fill="#1A1C48" fill-opacity="0.01"/>
<path d="M57 61C57 57.6863 59.6863 55 63 55H163C166.314 55 169 57.6863 169 61V105C169 108.314 166.314 111 163 111H63C59.6863 111 57 108.314 57 105V61Z" stroke="#9499C3" stroke-opacity="0.5" stroke-width="1.5"/>
</g>
<defs>
<filter id="filter0_di_24_243" x="0.25" y="0.25" width="225.5" height="169.5" filterUnits="userSpaceOnUse" color-interpolation-filters="sRGB">
<feFlood flood-opacity="0" result="BackgroundImageFix"/>
<feColorMatrix in="SourceAlpha" type="matrix" values="0 0 0 0 0 0 0 0 0 0 0 0 0 0 0 0 0 0 127 0" result="hardAlpha"/>
<feOffset dy="2"/>
<feGaussianBlur stdDeviation="28"/>
<feColorMatrix type="matrix" values="0 0 0 0 0 0 0 0 0 0 0 0 0 0 0 0 0 0 0.15 0"/>
<feBlend mode="normal" in2="BackgroundImageFix" result="effect1_dropShadow_24_243"/>
<feBlend mode="normal" in="SourceGraphic" in2="effect1_dropShadow_24_243" result="shape"/>
<feColorMatrix in="SourceAlpha" type="matrix" values="0 0 0 0 0 0 0 0 0 0 0 0 0 0 0 0 0 0 127 0" result="hardAlpha"/>
<feOffset/>
<feGaussianBlur stdDeviation="25"/>
<feComposite in2="hardAlpha" operator="arithmetic" k2="-1" k3="1"/>
<feColorMatrix type="matrix" values="0 0 0 0 0 0 0 0 0 0 0 0 0 0 0 0 0 0 0.2 0"/>
<feBlend mode="normal" in2="shape" result="effect2_innerShadow_24_243"/>
</filter>
</defs>
</svg>
