<svg width="32" height="32" viewBox="0 0 32 32" fill="none" xmlns="http://www.w3.org/2000/svg">
<path d="M27.9201 14.6667C27.6181 11.9629 26.4056 9.44209 24.4818 7.5183C22.5581 5.59451 20.0373 4.38206 17.3334 4.08004V2.66671C17.3334 1.93033 16.7365 1.33337 16.0001 1.33337V1.33337C15.2637 1.33337 14.6668 1.93033 14.6668 2.66671V4.08004C11.9629 4.38206 9.44215 5.59451 7.51836 7.5183C5.59457 9.44209 4.38212 11.9629 4.0801 14.6667H2.66677C1.93039 14.6667 1.33344 15.2637 1.33344 16V16C1.33344 16.7364 1.93039 17.3334 2.66677 17.3334H4.0801C4.38212 20.0372 5.59457 22.558 7.51836 24.4818C9.44215 26.4056 11.9629 27.618 14.6668 27.92V29.3334C14.6668 30.0698 15.2637 30.6667 16.0001 30.6667V30.6667C16.7365 30.6667 17.3334 30.0698 17.3334 29.3334V27.92C20.0373 27.618 22.5581 26.4056 24.4818 24.4818C26.4056 22.558 27.6181 20.0372 27.9201 17.3334H29.3334C30.0698 17.3334 30.6668 16.7364 30.6668 16V16C30.6668 15.2637 30.0698 14.6667 29.3334 14.6667H27.9201ZM16.0001 25.3334C10.8401 25.3334 6.66677 21.16 6.66677 16C6.66677 10.84 10.8401 6.66671 16.0001 6.66671C21.1601 6.66671 25.3334 10.84 25.3334 16C25.3334 21.16 21.1601 25.3334 16.0001 25.3334Z" fill="white"/>
</svg>
