<svg width="32" height="32" viewBox="0 0 32 32" fill="none" xmlns="http://www.w3.org/2000/svg">
<path d="M20.8934 5.33329H18.6668V3.99996C18.6668 3.26663 18.0668 2.66663 17.3334 2.66663H14.6668C13.9334 2.66663 13.3334 3.26663 13.3334 3.99996V5.33329H11.1068C10.1334 5.33329 9.33344 6.13329 9.33344 7.10663V27.5466C9.33344 28.5333 10.1334 29.3333 11.1201 29.3333H20.8801C21.8668 29.3333 22.6668 28.5333 22.6668 27.56V7.10663C22.6668 6.13329 21.8668 5.33329 20.8934 5.33329ZM19.4801 17.6533L15.9201 24.32C15.6001 24.92 14.6668 24.6933 14.6668 24V19.3333H13.1068C12.9909 19.3336 12.8769 19.3037 12.7761 19.2466C12.6753 19.1894 12.5911 19.107 12.5319 19.0073C12.4727 18.9077 12.4405 18.7944 12.4384 18.6786C12.4363 18.5627 12.4645 18.4483 12.5201 18.3466L16.0801 11.68C16.4001 11.08 17.3334 11.3066 17.3334 12V16.6666H18.8934C19.3868 16.6666 19.7201 17.2 19.4801 17.6533V17.6533Z" fill="white"/>
</svg>
