<svg width="32" height="32" viewBox="0 0 32 32" fill="none" xmlns="http://www.w3.org/2000/svg">
<path d="M26.6666 20.4134L29.2 17.88C30.24 16.84 30.24 15.1467 29.2 14.1067L26.6666 11.5867V8.00002C26.6666 6.53335 25.4666 5.33335 24 5.33335H20.4133L17.88 2.80002C16.84 1.76002 15.1466 1.76002 14.1066 2.80002L11.5866 5.33335H7.99996C6.53329 5.33335 5.33329 6.53335 5.33329 8.00002V11.5867L2.79996 14.12C1.75996 15.16 1.75996 16.8534 2.79996 17.8934L5.33329 20.4267V24C5.33329 25.4667 6.53329 26.6667 7.99996 26.6667H11.5866L14.12 29.2C15.16 30.24 16.8533 30.24 17.8933 29.2L20.4266 26.6667H24C25.4666 26.6667 26.6666 25.4667 26.6666 24V20.4134ZM16 22.5334V9.46669C16 8.65335 16.7333 7.98669 17.5333 8.14669C21.2133 8.86669 24 12.1067 24 16C24 19.8934 21.2133 23.1334 17.5333 23.8534C16.7333 24.0134 16 23.3467 16 22.5334Z" fill="white"/>
</svg>
