<svg width="32" height="32" viewBox="0 0 32 32" fill="none" xmlns="http://www.w3.org/2000/svg">
<path d="M26.6666 10.6666C26.6666 11.403 26.0696 12 25.3333 12H19.9999V28C19.9999 28.7363 19.403 29.3333 18.6666 29.3333V29.3333C17.9302 29.3333 17.3333 28.7363 17.3333 28V22.6666C17.3333 21.9302 16.7363 21.3333 15.9999 21.3333V21.3333C15.2635 21.3333 14.6666 21.9302 14.6666 22.6666V28C14.6666 28.7363 14.0696 29.3333 13.3333 29.3333V29.3333C12.5969 29.3333 11.9999 28.7363 11.9999 28V12H6.66658C5.9302 12 5.33325 11.403 5.33325 10.6666V10.6666C5.33325 9.93025 5.93021 9.33329 6.66659 9.33329H25.3333C26.0696 9.33329 26.6666 9.93025 26.6666 10.6666V10.6666ZM15.9999 2.66663C16.7072 2.66663 17.3854 2.94758 17.8855 3.44767C18.3856 3.94777 18.6666 4.62605 18.6666 5.33329C18.6666 6.04054 18.3856 6.71881 17.8855 7.21891C17.3854 7.71901 16.7072 7.99996 15.9999 7.99996C15.2927 7.99996 14.6144 7.71901 14.1143 7.21891C13.6142 6.71881 13.3333 6.04054 13.3333 5.33329C13.3333 3.85329 14.5199 2.66663 15.9999 2.66663Z" fill="#E72D2D"/>
</svg>
