<svg width="32" height="32" viewBox="0 0 32 32" fill="none" xmlns="http://www.w3.org/2000/svg">
<path d="M25.8803 14.4732H28.6625C28.5776 13.047 28.2638 11.6438 27.7332 10.3175L25.2905 11.7297C25.6021 12.5973 25.8066 13.5165 25.8803 14.4732ZM21.0353 3.22473C19.6833 2.58007 18.2317 2.17036 16.7424 2.01311V4.82768C17.7428 4.9584 18.7192 5.23279 19.6414 5.64238L21.0353 3.22473ZM24.0135 9.25077L26.4354 7.85115C25.6094 6.63165 24.5887 5.55654 23.414 4.66892L22.0146 7.09493C22.7776 7.71722 23.4503 8.4428 24.0135 9.25077ZM15.35 25.8917C12.5461 25.8917 9.85705 24.7766 7.8744 22.7916C5.89175 20.8067 4.77791 18.1146 4.77791 15.3074C4.77791 10.3648 8.16475 6.22354 12.74 5.06078C13.4293 4.8856 13.9603 4.29464 13.9603 3.58342V3.58342C13.9603 2.7429 13.2295 2.08093 12.4095 2.26541C6.4483 3.60643 1.99579 8.93582 1.99579 15.3074C1.99561 17.0634 2.34093 18.8022 3.01205 20.4245C3.68317 22.0468 4.66693 23.5209 5.90714 24.7625C7.14736 26.0042 8.61974 26.9891 10.2402 27.661C11.8607 28.3328 13.5974 28.6786 15.3514 28.6784C21.4955 28.6784 26.6589 24.5185 28.2117 18.8595C28.44 18.0277 27.7734 17.2586 26.9108 17.2586V17.2586C26.2296 17.2586 25.655 17.7482 25.4564 18.3998C24.1353 22.7355 20.1131 25.8917 15.35 25.8917Z" fill="white"/>
<circle cx="15.5" cy="15.5" r="4.5" fill="white"/>
</svg>
