<svg width="32" height="32" viewBox="0 0 32 32" fill="none" xmlns="http://www.w3.org/2000/svg">
<path fill-rule="evenodd" clip-rule="evenodd" d="M12 29.3333C12 29.687 11.8596 30.0261 11.6095 30.2761C11.3595 30.5262 11.0203 30.6667 10.6667 30.6667C10.3131 30.6667 9.97395 30.5262 9.7239 30.2761C9.47385 30.0261 9.33337 29.687 9.33337 29.3333C9.33337 28.9797 9.47385 28.6406 9.7239 28.3905C9.97395 28.1405 10.3131 28 10.6667 28C11.0203 28 11.3595 28.1405 11.6095 28.3905C11.8596 28.6406 12 28.9797 12 29.3333ZM17.3334 29.3333C17.3334 29.687 17.1929 30.0261 16.9428 30.2761C16.6928 30.5262 16.3537 30.6667 16 30.6667C15.6464 30.6667 15.3073 30.5262 15.0572 30.2761C14.8072 30.0261 14.6667 29.687 14.6667 29.3333C14.6667 28.9797 14.8072 28.6406 15.0572 28.3905C15.3073 28.1405 15.6464 28 16 28C16.3537 28 16.6928 28.1405 16.9428 28.3905C17.1929 28.6406 17.3334 28.9797 17.3334 29.3333ZM21.3334 30.6667C21.687 30.6667 22.0261 30.5262 22.2762 30.2761C22.5262 30.0261 22.6667 29.687 22.6667 29.3333C22.6667 28.9797 22.5262 28.6406 22.2762 28.3905C22.0261 28.1405 21.687 28 21.3334 28C20.9798 28 20.6406 28.1405 20.3906 28.3905C20.1405 28.6406 20 28.9797 20 29.3333C20 29.687 20.1405 30.0261 20.3906 30.2761C20.6406 30.5262 20.9798 30.6667 21.3334 30.6667V30.6667Z" fill="white"/>
<path fill-rule="evenodd" clip-rule="evenodd" d="M12 2.66671C12 3.02033 11.8595 3.35947 11.6095 3.60952C11.3594 3.85957 11.0203 4.00004 10.6666 4.00004C10.313 4.00004 9.97389 3.85957 9.72384 3.60952C9.47379 3.35947 9.33331 3.02033 9.33331 2.66671C9.33331 2.31309 9.47379 1.97395 9.72384 1.7239C9.97389 1.47385 10.313 1.33337 10.6666 1.33337C11.0203 1.33337 11.3594 1.47385 11.6095 1.7239C11.8595 1.97395 12 2.31309 12 2.66671ZM17.3333 2.66671C17.3333 3.02033 17.1928 3.35947 16.9428 3.60952C16.6927 3.85957 16.3536 4.00004 16 4.00004C15.6464 4.00004 15.3072 3.85957 15.0572 3.60952C14.8071 3.35947 14.6666 3.02033 14.6666 2.66671C14.6666 2.31309 14.8071 1.97395 15.0572 1.7239C15.3072 1.47385 15.6464 1.33337 16 1.33337C16.3536 1.33337 16.6927 1.47385 16.9428 1.7239C17.1928 1.97395 17.3333 2.31309 17.3333 2.66671ZM21.3333 4.00004C21.6869 4.00004 22.0261 3.85957 22.2761 3.60952C22.5262 3.35947 22.6666 3.02033 22.6666 2.66671C22.6666 2.31309 22.5262 1.97395 22.2761 1.7239C22.0261 1.47385 21.6869 1.33337 21.3333 1.33337C20.9797 1.33337 20.6406 1.47385 20.3905 1.7239C20.1405 1.97395 20 2.31309 20 2.66671C20 3.02033 20.1405 3.35947 20.3905 3.60952C20.6406 3.85957 20.9797 4.00004 21.3333 4.00004ZM12 29.3334C12 29.687 11.8595 30.0261 11.6095 30.2762C11.3594 30.5262 11.0203 30.6667 10.6666 30.6667C10.313 30.6667 9.97389 30.5262 9.72384 30.2762C9.47379 30.0261 9.33331 29.687 9.33331 29.3334C9.33331 28.9798 9.47379 28.6406 9.72384 28.3906C9.97389 28.1405 10.313 28 10.6666 28C11.0203 28 11.3594 28.1405 11.6095 28.3906C11.8595 28.6406 12 28.9798 12 29.3334ZM17.3333 29.3334C17.3333 29.687 17.1928 30.0261 16.9428 30.2762C16.6927 30.5262 16.3536 30.6667 16 30.6667C15.6464 30.6667 15.3072 30.5262 15.0572 30.2762C14.8071 30.0261 14.6666 29.687 14.6666 29.3334C14.6666 28.9798 14.8071 28.6406 15.0572 28.3906C15.3072 28.1405 15.6464 28 16 28C16.3536 28 16.6927 28.1405 16.9428 28.3906C17.1928 28.6406 17.3333 28.9798 17.3333 29.3334ZM21.3333 30.6667C21.6869 30.6667 22.0261 30.5262 22.2761 30.2762C22.5262 30.0261 22.6666 29.687 22.6666 29.3334C22.6666 28.9798 22.5262 28.6406 22.2761 28.3906C22.0261 28.1405 21.6869 28 21.3333 28C20.9797 28 20.6406 28.1405 20.3905 28.3906C20.1405 28.6406 20 28.9798 20 29.3334C20 29.687 20.1405 30.0261 20.3905 30.2762C20.6406 30.5262 20.9797 30.6667 21.3333 30.6667ZM30.6666 21.3334C30.6666 20.9798 30.5262 20.6406 30.2761 20.3906C30.0261 20.1405 29.6869 20 29.3333 20C28.9797 20 28.6406 20.1405 28.3905 20.3906C28.1405 20.6406 28 20.9798 28 21.3334C28 21.687 28.1405 22.0261 28.3905 22.2762C28.6406 22.5262 28.9797 22.6667 29.3333 22.6667C29.6869 22.6667 30.0261 22.5262 30.2761 22.2762C30.5262 22.0261 30.6666 21.687 30.6666 21.3334ZM30.6666 16C30.6666 15.6464 30.5262 15.3073 30.2761 15.0572C30.0261 14.8072 29.6869 14.6667 29.3333 14.6667C28.9797 14.6667 28.6406 14.8072 28.3905 15.0572C28.1405 15.3073 28 15.6464 28 16C28 16.3537 28.1405 16.6928 28.3905 16.9428C28.6406 17.1929 28.9797 17.3334 29.3333 17.3334C29.6869 17.3334 30.0261 17.1929 30.2761 16.9428C30.5262 16.6928 30.6666 16.3537 30.6666 16ZM29.3333 9.33337C29.6869 9.33337 30.0261 9.47385 30.2761 9.7239C30.5262 9.97395 30.6666 10.3131 30.6666 10.6667C30.6666 11.0203 30.5262 11.3595 30.2761 11.6095C30.0261 11.8596 29.6869 12 29.3333 12C28.9797 12 28.6406 11.8596 28.3905 11.6095C28.1405 11.3595 28 11.0203 28 10.6667C28 10.3131 28.1405 9.97395 28.3905 9.7239C28.6406 9.47385 28.9797 9.33337 29.3333 9.33337ZM2.66665 20C3.02027 20 3.35941 20.1405 3.60946 20.3906C3.8595 20.6406 3.99998 20.9798 3.99998 21.3334C3.99998 21.687 3.8595 22.0261 3.60946 22.2762C3.35941 22.5262 3.02027 22.6667 2.66665 22.6667C2.31302 22.6667 1.97389 22.5262 1.72384 22.2762C1.47379 22.0261 1.33331 21.687 1.33331 21.3334C1.33331 20.9798 1.47379 20.6406 1.72384 20.3906C1.97389 20.1405 2.31302 20 2.66665 20ZM2.66665 14.6667C3.02027 14.6667 3.35941 14.8072 3.60946 15.0572C3.8595 15.3073 3.99998 15.6464 3.99998 16C3.99998 16.3537 3.8595 16.6928 3.60946 16.9428C3.35941 17.1929 3.02027 17.3334 2.66665 17.3334C2.31302 17.3334 1.97389 17.1929 1.72384 16.9428C1.47379 16.6928 1.33331 16.3537 1.33331 16C1.33331 15.6464 1.47379 15.3073 1.72384 15.0572C1.97389 14.8072 2.31302 14.6667 2.66665 14.6667ZM3.99998 10.6667C3.99998 10.3131 3.8595 9.97395 3.60946 9.7239C3.35941 9.47385 3.02027 9.33337 2.66665 9.33337C2.31302 9.33337 1.97389 9.47385 1.72384 9.7239C1.47379 9.97395 1.33331 10.3131 1.33331 10.6667C1.33331 11.0203 1.47379 11.3595 1.72384 11.6095C1.97389 11.8596 2.31302 12 2.66665 12C3.02027 12 3.35941 11.8596 3.60946 11.6095C3.8595 11.3595 3.99998 11.0203 3.99998 10.6667ZM22.6666 8.00004H9.33331C8.97969 8.00004 8.64055 8.14052 8.3905 8.39057C8.14046 8.64061 7.99998 8.97975 7.99998 9.33337V22.6667C7.99998 23.0203 8.14046 23.3595 8.3905 23.6095C8.64055 23.8596 8.97969 24 9.33331 24H22.6666C23.0203 24 23.3594 23.8596 23.6095 23.6095C23.8595 23.3595 24 23.0203 24 22.6667V9.33337C24 8.97975 23.8595 8.64061 23.6095 8.39057C23.3594 8.14052 23.0203 8.00004 22.6666 8.00004ZM9.33331 5.33337C8.27245 5.33337 7.25503 5.7548 6.50489 6.50495C5.75474 7.25509 5.33331 8.27251 5.33331 9.33337V22.6667C5.33331 23.7276 5.75474 24.745 6.50489 25.4951C7.25503 26.2453 8.27245 26.6667 9.33331 26.6667H22.6666C23.7275 26.6667 24.7449 26.2453 25.4951 25.4951C26.2452 24.745 26.6666 23.7276 26.6666 22.6667V9.33337C26.6666 8.27251 26.2452 7.25509 25.4951 6.50495C24.7449 5.7548 23.7275 5.33337 22.6666 5.33337H9.33331ZM18.6666 13.3334H13.3333V18.6667H18.6666V13.3334ZM12 10.6667C11.2636 10.6667 10.6666 11.2637 10.6666 12V20C10.6666 20.7364 11.2636 21.3334 12 21.3334H20C20.7364 21.3334 21.3333 20.7364 21.3333 20V12C21.3333 11.2637 20.7364 10.6667 20 10.6667H12Z" fill="white"/>
</svg>
