<svg width="32" height="32" viewBox="0 0 32 32" fill="none" xmlns="http://www.w3.org/2000/svg">
<g clip-path="url(#clip0_24_273)">
<path d="M22.4109 6.05584C28.0311 9.53192 29.7889 16.9685 26.3172 22.5816C23.1143 27.76 16.5351 29.6492 11.1224 27.1815C10.3633 26.8354 10.1504 25.8918 10.5963 25.1867V25.1867C11.036 24.4915 11.9507 24.2938 12.7111 24.6075C16.7202 26.2614 21.4332 24.8248 23.7881 21.0174C26.4077 16.7821 25.0991 11.2459 20.8584 8.62306C18.7381 7.31163 16.3307 7.09252 14.0833 7.64258L14.5359 9.55033L7.48388 7.40576L12.8298 2.34705L13.3801 4.66794C16.3557 3.96854 19.6264 4.33361 22.4365 6.07164L22.4109 6.05584Z" fill="white"/>
<path d="M16.5295 11.9814L16.6451 11.9814C18.9528 11.9814 20.8235 13.8522 20.8235 16.1598C20.8235 18.4674 18.9528 20.3381 16.6451 20.3381L16.5295 20.3381C14.2219 20.3381 12.3511 18.4674 12.3511 16.1598C12.3511 13.8522 14.2219 11.9814 16.5295 11.9814Z" stroke="white" stroke-width="2"/>
</g>
<defs>
<clipPath id="clip0_24_273">
<rect width="32" height="32" fill="white"/>
</clipPath>
</defs>
</svg>
